<?xml version="1.0" encoding="utf-8"?>
<!-- Generator: Adobe Illustrator 22.1.0, SVG Export Plug-In . SVG Version: 6.00 Build 0)  -->
<svg version="1.1" id="Layer_1" xmlns:v="https://vecta.io/nano"
	 xmlns="http://www.w3.org/2000/svg" xmlns:xlink="http://www.w3.org/1999/xlink" x="0px" y="0px" viewBox="0 0 167 34"
	 style="enable-background:new 0 0 167 34;" xml:space="preserve">
<style type="text/css">
	.st0{fill:#FFFFFF;}
</style>
<path class="st0" d="M65.7,8.8v16.7h-3.4V12.1l-1.9,7.2h-2.9l-1.9-7.2v13.4h-3.4V8.8h4.7l2,7.6l2-7.6C60.9,8.8,65.7,8.8,65.7,8.8z
	 M78.8,25.5h-3.4l-0.7-4.1h-3.5l-0.7,4.1H67l3.7-16.7h4.4L78.8,25.5z M74.3,19.3l-1.4-7.6l-1.4,7.6H74.3z M91.9,13.7v0.6
	c0,2.2-0.4,3.5-1.4,4.2c-0.8,0.6-1.9,0.8-3.6,0.8h-3.4v6.2h-3.4V8.8h6.8c2,0,3.2,0.3,4,1.1C91.6,10.6,91.9,11.9,91.9,13.7z
	 M88.5,11.7c0-0.5-0.4-0.8-0.8-0.8h-4.2v6.2h4.2c0.5,0,0.8-0.4,0.8-0.8V11.7z M105.1,23.4v2.1H93.3V8.8h3.4v14.6L105.1,23.4
	L105.1,23.4z M117.9,25.5h-3.4l-0.7-4.1h-3.5l-0.7,4.1h-3.4l3.7-16.7h4.4L117.9,25.5z M113.4,19.3l-1.4-7.6l-1.4,7.6H113.4z
	 M131,26.1v2.1c-1.3,0-2.2-0.1-2.8-0.5s-0.9-1-1.1-2c-0.5,0.1-1,0.1-1.7,0.1h-1.8c-2,0-3.2-0.3-4-1.1c-0.7-0.8-1-2-1-3.8v-7.3
	c0-2.1,0.3-3.4,1.2-4.1c0.8-0.6,2-0.9,3.7-0.9h1.8c1.9,0,3.2,0.3,3.9,1c0.8,0.8,1,2,1,3.9v7.3c0,2-0.3,3.2-1.1,4
	c-0.4,0.3-0.8,0.6-1.4,0.7c0.1,0.3,0.4,0.6,0.8,0.6L131,26.1L131,26.1z M127.1,11.5c0-0.5-0.4-0.8-0.8-0.8h-3.4
	c-0.5,0-0.8,0.4-0.8,0.8v11.2c0,0.5,0.4,0.8,0.8,0.8h3.4c0.5,0,0.8-0.4,0.8-0.8C127.1,22.7,127.1,11.5,127.1,11.5z M143.8,8.8v12
	c0,2-0.3,3.2-1.1,4c-0.8,0.7-2,1-3.9,1H137c-2,0-3.2-0.3-4-1.1c-0.7-0.8-1-2-1-3.8v-12h3.4v14c0,0.5,0.4,0.8,0.8,0.8h3.4
	c0.5,0,0.8-0.4,0.8-0.8v-14h3.4L143.8,8.8z M149,10.9v5.2h6.7v2.1H149v5.2h8.4v2.1h-11.7V8.8h11.7v2.1C157.4,10.9,149,10.9,149,10.9
	z M40.7,0.6h-3.6c0.9,1.1,1.4,2.6,1.4,4.1v22.7c0,0.5-0.3,1-0.8,1.2c-0.2,0.1-0.4,0.1-0.6,0.1c-0.3,0-0.6-0.1-0.9-0.3l-10.9-9.1
	c-0.6-0.5-0.7-1.3-0.2-1.9s1.3-0.7,1.9-0.2l8.7,7.2V4.7c0-2.3-1.8-4.1-4.1-4.1H18c-2.7,0-5,2.2-5,4.9c0,0,0,0.1,0,0.1v22.7
	c0,2.7,2.2,5,4.9,5c0,0,0.1,0,0.1,0h3.6c-0.9-1.1-1.4-2.6-1.4-4.1V6.5c0-0.5,0.3-1,0.8-1.2c0.5-0.2,1-0.2,1.5,0.2l10.9,9.1
	c0.6,0.5,0.7,1.3,0.2,1.9c-0.5,0.6-1.3,0.7-1.9,0.2L23,9.5v19.8c0,2.3,1.8,4.1,4.1,4.1h13.6c2.7,0,5-2.2,5-4.9c0,0,0-0.1,0-0.1V5.6
	C45.7,2.9,43.5,0.6,40.7,0.6z"/>
</svg>
